<svg xmlns="http://www.w3.org/2000/svg" version="1.1" x="0px" y="0px" viewBox="0 0 59 60" width="59" height="60" preserveAspectRatio="xMidYMid" class="injected-svg svg-inject svglogo logoimg">
<style type="text/css">
	.sp_0{fill:#0086BF;}
	.sp_1{fill:#00A7D3;}
	.sp_2{fill:#2FADD4;}
	.sp_3{fill:#77CFE3;}
	.sp_4{fill:#16C1E1;}
	.sp_5{fill:#ACDEE6;}
	.sp_6{fill:#0075B1;}
	.sp_7{fill:#009ACE;}
</style>
<path class="sp_0" d="M59.376,35.517l-5.966-24.18c-0.087-0.345-0.228-0.698-0.4-1.043c-0.753-1.45-2.226-2.776-3.669-3.19  l-1.254-0.361v0L25.421,0.181c-1.278-0.368-2.948-0.157-4.297,0.47l0,0c-0.541,0.244-1.027,0.564-1.411,0.934L1.759,18.841  c-0.573,0.548-1.034,1.333-1.349,2.187l0.001,0c-0.126,0.37-0.235,0.745-0.299,1.13l0,0c-0.149,0.799-0.157,1.614,0.016,2.32  l5.959,24.178c0.212,0.832,0.705,1.694,1.364,2.423l0,0c0.767,0.854,1.74,1.536,2.705,1.818l23.927,6.923  c1.318,0.377,3.042,0.141,4.407-0.532v-0.001c0.493-0.235,0.932-0.534,1.294-0.877l1.505-1.452l16.449-15.796  c0.737-0.706,1.294-1.788,1.568-2.925l-0.001-0.001C59.54,37.303,59.581,36.339,59.376,35.517z" data-svg-origin="29.753694593906403 29.999673053622246" transform="matrix(1,0,0,1,0,0)" style="opacity: 1; transform-origin: 0px 0px 0px;"></path>
<g id="XMLID_58_">
	<g id="XMLID_60_">
		<path id="XMLID_71_" class="sp_1" d="M52.39,34.012l6.916,4.226c-0.274,1.137-0.831,2.219-1.568,2.925L41.289,56.959L52.39,34.012z    " data-svg-origin="50.29750061035156 45.48550033569336" transform="matrix(1,0,0,1,0,0)" style="opacity: 1; transform-origin: 0px 0px 0px;"></path>
		<path id="XMLID_70_" class="sp_2" d="M53.01,10.295c0.173,0.345,0.313,0.698,0.4,1.043l5.966,24.18    c0.204,0.822,0.164,1.787-0.071,2.72l-6.914-4.227L53.01,10.295z" data-svg-origin="55.949371337890625 24.266501426696777" transform="matrix(1,0,0,1,0,0)" style="opacity: 1; transform-origin: 0px 0px 0px;"></path>
		<polygon id="XMLID_69_" class="sp_3" points="27.828,9.315 52.39,34.012 19.337,42.707   " data-svg-origin="35.86350059509277 26.011000633239746" transform="matrix(1,0,0,1,0,0)" style="opacity: 1; transform-origin: 0px 0px 0px;"></polygon>
		<path id="XMLID_68_" class="sp_4" d="M52.39,34.012L41.289,56.959l-1.505,1.452c-0.361,0.344-0.8,0.642-1.294,0.877L19.337,42.707    L52.39,34.012z" data-svg-origin="35.86350059509277 46.64999961853027" transform="matrix(1,0,0,1,0,0)" style="opacity: 1; transform-origin: 0px 0px 0px;"></path>
		<path id="XMLID_67_" class="sp_5" d="M53.01,10.295l-0.619,23.716L27.828,9.315l20.259-2.571l1.254,0.361    C50.784,7.52,52.257,8.845,53.01,10.295" data-svg-origin="40.41899871826172 20.377500534057617" transform="matrix(1,0,0,1,0,0)" style="opacity: 1; transform-origin: 0px 0px 0px;"></path>
		<path id="XMLID_66_" class="sp_3" d="M48.087,6.744L27.828,9.315l-6.704-8.663c1.349-0.626,3.019-0.838,4.297-0.47L48.087,6.744z" data-svg-origin="34.60550022125244 4.6580920815467834" transform="matrix(1,0,0,1,0,0)" style="opacity: 1; transform-origin: 0px 0px 0px;"></path>
		<path id="XMLID_65_" class="sp_6" d="M19.337,42.706l19.154,16.582c-1.365,0.673-3.089,0.909-4.407,0.532l-23.927-6.923    c-0.964-0.283-1.937-0.964-2.705-1.818L19.337,42.706z" data-svg-origin="22.97149658203125 51.35269355773926" transform="matrix(1,0,0,1,0,0)" style="opacity: 1; transform-origin: 0px 0px 0px;"></path>
		<path id="XMLID_64_" class="sp_6" d="M21.124,0.652l6.704,8.663L0.41,21.028c0.315-0.854,0.776-1.639,1.349-2.187L19.713,1.586    C20.098,1.216,20.583,0.896,21.124,0.652" data-svg-origin="14.1190005838871 10.839999735355377" transform="matrix(1,0,0,1,0,0)" style="opacity: 1; transform-origin: 0px 0px 0px;"></path>
		<path id="XMLID_63_" class="sp_7" d="M27.828,9.315l-8.491,33.391L0.112,22.158c0.064-0.384,0.173-0.76,0.299-1.13L27.828,9.315z" data-svg-origin="13.969999797642231 26.010499000549316" transform="matrix(1,0,0,1,0,0)" style="opacity: 1; transform-origin: 0px 0px 0px;"></path>
		<path id="XMLID_62_" class="sp_0" d="M0.113,22.158l19.225,20.549L7.452,51.08c-0.66-0.729-1.153-1.591-1.365-2.423L0.129,24.478    C-0.044,23.772-0.037,22.957,0.113,22.158" data-svg-origin="9.668926477432251 36.619001388549805" transform="matrix(1,0,0,1,0,0)" style="opacity: 1; transform-origin: 0px 0px 0px;"></path>
	</g>
</g>
<g id="XMLID_1_">
	<g id="XMLID_3_">
		<path id="XMLID_14_" class="sp_1" d="M52.39,34.012l6.916,4.226c-0.274,1.137-0.831,2.219-1.568,2.925L41.289,56.959L52.39,34.012z    " data-svg-origin="50.29750061035156 45.48550033569336" transform="matrix(1,0,0,1,0,0)" style="opacity: 1; transform-origin: 0px 0px 0px;"></path>
		<path id="XMLID_13_" class="sp_2" d="M53.01,10.295c0.173,0.345,0.313,0.698,0.4,1.043l5.966,24.18    c0.204,0.822,0.164,1.787-0.071,2.72l-6.914-4.227L53.01,10.295z" data-svg-origin="55.949371337890625 24.266501426696777" transform="matrix(1,0,0,1,0,0)" style="opacity: 1; transform-origin: 0px 0px 0px;"></path>
		<polygon id="XMLID_12_" class="sp_3" points="27.828,9.315 52.39,34.012 19.337,42.707   " data-svg-origin="35.86350059509277 26.011000633239746" transform="matrix(1,0,0,1,0,0)" style="opacity: 1; transform-origin: 0px 0px 0px;"></polygon>
		<path id="XMLID_11_" class="sp_4" d="M52.39,34.012L41.289,56.959l-1.505,1.452c-0.361,0.344-0.8,0.642-1.294,0.877L19.337,42.707    L52.39,34.012z" data-svg-origin="35.86350059509277 46.64999961853027" transform="matrix(1,0,0,1,0,0)" style="opacity: 1; transform-origin: 0px 0px 0px;"></path>
		<path id="XMLID_10_" class="sp_5" d="M53.01,10.295l-0.619,23.716L27.828,9.315l20.259-2.571l1.254,0.361    C50.784,7.52,52.257,8.845,53.01,10.295" data-svg-origin="40.41899871826172 20.377500534057617" transform="matrix(1,0,0,1,0,0)" style="opacity: 1; transform-origin: 0px 0px 0px;"></path>
		<path id="XMLID_9_" class="sp_3" d="M48.087,6.744L27.828,9.315l-6.704-8.663c1.349-0.626,3.019-0.838,4.297-0.47L48.087,6.744z" data-svg-origin="34.60550022125244 4.6580920815467834" transform="matrix(1,0,0,1,0,0)" style="opacity: 1; transform-origin: 0px 0px 0px;"></path>
		<path id="XMLID_8_" class="sp_6" d="M19.337,42.706l19.154,16.582c-1.365,0.673-3.089,0.909-4.407,0.532l-23.927-6.923    c-0.964-0.283-1.937-0.964-2.705-1.818L19.337,42.706z" data-svg-origin="22.97149658203125 51.35269355773926" transform="matrix(1,0,0,1,0,0)" style="opacity: 1; transform-origin: 0px 0px 0px;"></path>
		<path id="XMLID_7_" class="sp_6" d="M21.124,0.652l6.704,8.663L0.41,21.028c0.315-0.854,0.776-1.639,1.349-2.187L19.713,1.586    C20.098,1.216,20.583,0.896,21.124,0.652" data-svg-origin="14.1190005838871 10.839999735355377" transform="matrix(1,0,0,1,0,0)" style="opacity: 1; transform-origin: 0px 0px 0px;"></path>
		<path id="XMLID_6_" class="sp_7" d="M27.828,9.315l-8.491,33.391L0.112,22.158c0.064-0.384,0.173-0.76,0.299-1.13L27.828,9.315z" data-svg-origin="13.969999797642231 26.010499000549316" transform="matrix(1,0,0,1,0,0)" style="opacity: 1; transform-origin: 0px 0px 0px;"></path>
		<path id="XMLID_5_" class="sp_0" d="M0.113,22.158l19.225,20.549L7.452,51.08c-0.66-0.729-1.153-1.591-1.365-2.423L0.129,24.478    C-0.044,23.772-0.037,22.957,0.113,22.158" data-svg-origin="9.668926477432251 36.619001388549805" transform="matrix(1,0,0,1,0,0)" style="opacity: 1; transform-origin: 0px 0px 0px;"></path>
	</g>
</g>
</svg>